<svg width="40" height="40" viewBox="0 0 40 40" fill="none" xmlns="http://www.w3.org/2000/svg">
<path d="M18.3359 21.6667H26.6693M13.3359 21.6667H13.3509M21.6693 28.3334H13.3359M26.6693 28.3334H26.6543" stroke="#68C37D" stroke-width="2.5" stroke-linecap="round" stroke-linejoin="round"/>
<path d="M30 3.33337V6.66671M10 3.33337V6.66671" stroke="#198E80" stroke-width="2.5" stroke-linecap="round" stroke-linejoin="round"/>
<path d="M4.16797 20.4054C4.16797 13.1432 4.16797 9.51214 6.25483 7.25607C8.3417 5 11.7005 5 18.418 5H21.5846C28.3021 5 31.6609 5 33.7478 7.25607C35.8346 9.51214 35.8346 13.1432 35.8346 20.4054V21.2613C35.8346 28.5234 35.8346 32.1545 33.7478 34.4106C31.6609 36.6667 28.3021 36.6667 21.5846 36.6667H18.418C11.7005 36.6667 8.3417 36.6667 6.25483 34.4106C4.16797 32.1545 4.16797 28.5234 4.16797 21.2613V20.4054Z" stroke="#198E80" stroke-width="2.5" stroke-linecap="round" stroke-linejoin="round"/>
<path d="M5 13.3334H35" stroke="#198E80" stroke-width="2.5" stroke-linecap="round" stroke-linejoin="round"/>
</svg>
