<svg width="20" height="20" viewBox="0 0 20 20" fill="none" xmlns="http://www.w3.org/2000/svg">
<path d="M10.0013 18.3333C14.6037 18.3333 18.3346 14.6023 18.3346 9.99996C18.3346 5.39759 14.6037 1.66663 10.0013 1.66663C5.39893 1.66663 1.66797 5.39759 1.66797 9.99996C1.66797 14.6023 5.39893 18.3333 10.0013 18.3333Z" stroke="#68C37D" stroke-width="1.5" stroke-linecap="round" stroke-linejoin="round"/>
<path d="M6.66667 2.5H7.5C5.875 7.36667 5.875 12.6333 7.5 17.5H6.66667" stroke="#68C37D" stroke-width="1.5" stroke-linecap="round" stroke-linejoin="round"/>
<path d="M12.5 2.5C14.125 7.36667 14.125 12.6333 12.5 17.5" stroke="#68C37D" stroke-width="1.5" stroke-linecap="round" stroke-linejoin="round"/>
<path d="M2.5 13.3333V12.5C7.36667 14.125 12.6333 14.125 17.5 12.5V13.3333" stroke="#68C37D" stroke-width="1.5" stroke-linecap="round" stroke-linejoin="round"/>
<path d="M2.5 7.5C7.36667 5.875 12.6333 5.875 17.5 7.5" stroke="#68C37D" stroke-width="1.5" stroke-linecap="round" stroke-linejoin="round"/>
</svg>
